<svg width="800" height="800" viewBox="0 0 800 800" fill="none" xmlns="http://www.w3.org/2000/svg">
<rect width="800" height="800" fill="#E5E5E5"/>
<rect width="800" height="800" fill="#4299E1"/>
<line y1="398.5" x2="800" y2="398.5" stroke="white" stroke-width="3"/>
<line x1="401.5" x2="401.5" y2="800" stroke="white" stroke-width="3"/>
<g filter="url(#filter0_d)">
<path d="M87.7188 767.141H78.7188V773.234H89.2812V777H74.0312V754.25H89.25V758.047H78.7188V763.469H87.7188V767.141ZM101.531 777C101.323 776.594 101.172 776.089 101.078 775.484C99.9844 776.703 98.5625 777.312 96.8125 777.312C95.1562 777.312 93.7812 776.833 92.6875 775.875C91.6042 774.917 91.0625 773.708 91.0625 772.25C91.0625 770.458 91.724 769.083 93.0469 768.125C94.3802 767.167 96.3021 766.682 98.8125 766.672H100.891V765.703C100.891 764.922 100.688 764.297 100.281 763.828C99.8854 763.359 99.2552 763.125 98.3906 763.125C97.6302 763.125 97.0312 763.307 96.5938 763.672C96.1667 764.036 95.9531 764.536 95.9531 765.172H91.4375C91.4375 764.193 91.7396 763.286 92.3438 762.453C92.9479 761.62 93.8021 760.969 94.9062 760.5C96.0104 760.021 97.25 759.781 98.625 759.781C100.708 759.781 102.359 760.307 103.578 761.359C104.807 762.401 105.422 763.87 105.422 765.766V773.094C105.432 774.698 105.656 775.911 106.094 776.734V777H101.531ZM97.7969 773.859C98.4635 773.859 99.0781 773.714 99.6406 773.422C100.203 773.12 100.62 772.719 100.891 772.219V769.312H99.2031C96.9427 769.312 95.7396 770.094 95.5938 771.656L95.5781 771.922C95.5781 772.484 95.776 772.948 96.1719 773.312C96.5677 773.677 97.1094 773.859 97.7969 773.859ZM118.391 764.328C117.776 764.245 117.234 764.203 116.766 764.203C115.057 764.203 113.938 764.781 113.406 765.938V777H108.891V760.094H113.156L113.281 762.109C114.188 760.557 115.443 759.781 117.047 759.781C117.547 759.781 118.016 759.849 118.453 759.984L118.391 764.328ZM125.344 777H120.812V753H125.344V777ZM135.391 770.609L138.516 760.094H143.359L136.562 779.625L136.188 780.516C135.177 782.724 133.51 783.828 131.188 783.828C130.531 783.828 129.865 783.729 129.188 783.531V780.109L129.875 780.125C130.729 780.125 131.365 779.995 131.781 779.734C132.208 779.474 132.542 779.042 132.781 778.438L133.312 777.047L127.391 760.094H132.25L135.391 770.609ZM158.094 768.984V777H153.406V754.25H162.281C163.99 754.25 165.49 754.562 166.781 755.188C168.083 755.812 169.083 756.703 169.781 757.859C170.479 759.005 170.828 760.312 170.828 761.781C170.828 764.01 170.062 765.771 168.531 767.062C167.01 768.344 164.901 768.984 162.203 768.984H158.094ZM158.094 765.188H162.281C163.521 765.188 164.464 764.896 165.109 764.312C165.766 763.729 166.094 762.896 166.094 761.812C166.094 760.698 165.766 759.797 165.109 759.109C164.453 758.422 163.547 758.068 162.391 758.047H158.094V765.188ZM183.266 764.328C182.651 764.245 182.109 764.203 181.641 764.203C179.932 764.203 178.812 764.781 178.281 765.938V777H173.766V760.094H178.031L178.156 762.109C179.062 760.557 180.318 759.781 181.922 759.781C182.422 759.781 182.891 759.849 183.328 759.984L183.266 764.328ZM184.188 768.391C184.188 766.714 184.51 765.219 185.156 763.906C185.802 762.594 186.729 761.578 187.938 760.859C189.156 760.141 190.568 759.781 192.172 759.781C194.453 759.781 196.312 760.479 197.75 761.875C199.198 763.271 200.005 765.167 200.172 767.562L200.203 768.719C200.203 771.312 199.479 773.396 198.031 774.969C196.583 776.531 194.641 777.312 192.203 777.312C189.766 777.312 187.818 776.531 186.359 774.969C184.911 773.406 184.188 771.281 184.188 768.594V768.391ZM188.703 768.719C188.703 770.323 189.005 771.552 189.609 772.406C190.214 773.25 191.078 773.672 192.203 773.672C193.297 773.672 194.151 773.255 194.766 772.422C195.38 771.578 195.688 770.234 195.688 768.391C195.688 766.818 195.38 765.599 194.766 764.734C194.151 763.87 193.286 763.438 192.172 763.438C191.068 763.438 190.214 763.87 189.609 764.734C189.005 765.589 188.703 766.917 188.703 768.719ZM207.766 760.094V777.922C207.766 779.786 207.271 781.234 206.281 782.266C205.292 783.307 203.865 783.828 202 783.828C201.219 783.828 200.474 783.74 199.766 783.562V779.984C200.307 780.078 200.781 780.125 201.188 780.125C202.552 780.125 203.234 779.401 203.234 777.953V760.094H207.766ZM202.875 755.719C202.875 755.042 203.099 754.484 203.547 754.047C204.005 753.609 204.625 753.391 205.406 753.391C206.188 753.391 206.802 753.609 207.25 754.047C207.708 754.484 207.938 755.042 207.938 755.719C207.938 756.406 207.703 756.969 207.234 757.406C206.776 757.844 206.167 758.062 205.406 758.062C204.646 758.062 204.031 757.844 203.562 757.406C203.104 756.969 202.875 756.406 202.875 755.719ZM219.078 777.312C216.599 777.312 214.578 776.552 213.016 775.031C211.464 773.51 210.688 771.484 210.688 768.953V768.516C210.688 766.818 211.016 765.302 211.672 763.969C212.328 762.625 213.255 761.594 214.453 760.875C215.661 760.146 217.036 759.781 218.578 759.781C220.891 759.781 222.708 760.51 224.031 761.969C225.365 763.427 226.031 765.495 226.031 768.172V770.016H215.266C215.411 771.12 215.849 772.005 216.578 772.672C217.318 773.339 218.25 773.672 219.375 773.672C221.115 773.672 222.474 773.042 223.453 771.781L225.672 774.266C224.995 775.224 224.078 775.974 222.922 776.516C221.766 777.047 220.484 777.312 219.078 777.312ZM218.562 763.438C217.667 763.438 216.938 763.74 216.375 764.344C215.823 764.948 215.469 765.812 215.312 766.938H221.594V766.578C221.573 765.578 221.302 764.807 220.781 764.266C220.26 763.714 219.521 763.438 218.562 763.438ZM235.641 773.672C236.474 773.672 237.151 773.443 237.672 772.984C238.193 772.526 238.464 771.917 238.484 771.156H242.719C242.708 772.302 242.396 773.354 241.781 774.312C241.167 775.26 240.323 776 239.25 776.531C238.188 777.052 237.01 777.312 235.719 777.312C233.302 777.312 231.396 776.547 230 775.016C228.604 773.474 227.906 771.349 227.906 768.641V768.344C227.906 765.74 228.599 763.661 229.984 762.109C231.37 760.557 233.271 759.781 235.688 759.781C237.802 759.781 239.495 760.385 240.766 761.594C242.047 762.792 242.698 764.391 242.719 766.391H238.484C238.464 765.516 238.193 764.807 237.672 764.266C237.151 763.714 236.464 763.438 235.609 763.438C234.557 763.438 233.76 763.823 233.219 764.594C232.688 765.354 232.422 766.594 232.422 768.312V768.781C232.422 770.521 232.688 771.771 233.219 772.531C233.75 773.292 234.557 773.672 235.641 773.672ZM250.703 755.938V760.094H253.594V763.406H250.703V771.844C250.703 772.469 250.823 772.917 251.062 773.188C251.302 773.458 251.76 773.594 252.438 773.594C252.938 773.594 253.38 773.557 253.766 773.484V776.906C252.88 777.177 251.969 777.312 251.031 777.312C247.865 777.312 246.25 775.714 246.188 772.516V763.406H243.719V760.094H246.188V755.938H250.703Z" fill="white"/>
</g>
<g filter="url(#filter1_d)">
<path d="M499.156 754.25L505 770.75L510.812 754.25H516.969V777H512.266V770.781L512.734 760.047L506.594 777H503.375L497.25 760.062L497.719 770.781V777H493.031V754.25H499.156ZM530.562 777C530.354 776.594 530.203 776.089 530.109 775.484C529.016 776.703 527.594 777.312 525.844 777.312C524.188 777.312 522.812 776.833 521.719 775.875C520.635 774.917 520.094 773.708 520.094 772.25C520.094 770.458 520.755 769.083 522.078 768.125C523.411 767.167 525.333 766.682 527.844 766.672H529.922V765.703C529.922 764.922 529.719 764.297 529.312 763.828C528.917 763.359 528.286 763.125 527.422 763.125C526.661 763.125 526.062 763.307 525.625 763.672C525.198 764.036 524.984 764.536 524.984 765.172H520.469C520.469 764.193 520.771 763.286 521.375 762.453C521.979 761.62 522.833 760.969 523.938 760.5C525.042 760.021 526.281 759.781 527.656 759.781C529.74 759.781 531.391 760.307 532.609 761.359C533.839 762.401 534.453 763.87 534.453 765.766V773.094C534.464 774.698 534.688 775.911 535.125 776.734V777H530.562ZM526.828 773.859C527.495 773.859 528.109 773.714 528.672 773.422C529.234 773.12 529.651 772.719 529.922 772.219V769.312H528.234C525.974 769.312 524.771 770.094 524.625 771.656L524.609 771.922C524.609 772.484 524.807 772.948 525.203 773.312C525.599 773.677 526.141 773.859 526.828 773.859ZM543.328 755.938V760.094H546.219V763.406H543.328V771.844C543.328 772.469 543.448 772.917 543.688 773.188C543.927 773.458 544.385 773.594 545.062 773.594C545.562 773.594 546.005 773.557 546.391 773.484V776.906C545.505 777.177 544.594 777.312 543.656 777.312C540.49 777.312 538.875 775.714 538.812 772.516V763.406H536.344V760.094H538.812V755.938H543.328ZM558.859 775.281C557.745 776.635 556.203 777.312 554.234 777.312C552.422 777.312 551.036 776.792 550.078 775.75C549.13 774.708 548.646 773.182 548.625 771.172V760.094H553.141V771.016C553.141 772.776 553.943 773.656 555.547 773.656C557.078 773.656 558.13 773.125 558.703 772.062V760.094H563.234V777H558.984L558.859 775.281ZM576.141 764.328C575.526 764.245 574.984 764.203 574.516 764.203C572.807 764.203 571.688 764.781 571.156 765.938V777H566.641V760.094H570.906L571.031 762.109C571.938 760.557 573.193 759.781 574.797 759.781C575.297 759.781 575.766 759.849 576.203 759.984L576.141 764.328ZM585.797 777.312C583.318 777.312 581.297 776.552 579.734 775.031C578.182 773.51 577.406 771.484 577.406 768.953V768.516C577.406 766.818 577.734 765.302 578.391 763.969C579.047 762.625 579.974 761.594 581.172 760.875C582.38 760.146 583.755 759.781 585.297 759.781C587.609 759.781 589.427 760.51 590.75 761.969C592.083 763.427 592.75 765.495 592.75 768.172V770.016H581.984C582.13 771.12 582.568 772.005 583.297 772.672C584.036 773.339 584.969 773.672 586.094 773.672C587.833 773.672 589.193 773.042 590.172 771.781L592.391 774.266C591.714 775.224 590.797 775.974 589.641 776.516C588.484 777.047 587.203 777.312 585.797 777.312ZM585.281 763.438C584.385 763.438 583.656 763.74 583.094 764.344C582.542 764.948 582.188 765.812 582.031 766.938H588.312V766.578C588.292 765.578 588.021 764.807 587.5 764.266C586.979 763.714 586.24 763.438 585.281 763.438ZM608.281 768.984V777H603.594V754.25H612.469C614.177 754.25 615.677 754.562 616.969 755.188C618.271 755.812 619.271 756.703 619.969 757.859C620.667 759.005 621.016 760.312 621.016 761.781C621.016 764.01 620.25 765.771 618.719 767.062C617.198 768.344 615.089 768.984 612.391 768.984H608.281ZM608.281 765.188H612.469C613.708 765.188 614.651 764.896 615.297 764.312C615.953 763.729 616.281 762.896 616.281 761.812C616.281 760.698 615.953 759.797 615.297 759.109C614.641 758.422 613.734 758.068 612.578 758.047H608.281V765.188ZM633.453 764.328C632.839 764.245 632.297 764.203 631.828 764.203C630.12 764.203 629 764.781 628.469 765.938V777H623.953V760.094H628.219L628.344 762.109C629.25 760.557 630.505 759.781 632.109 759.781C632.609 759.781 633.078 759.849 633.516 759.984L633.453 764.328ZM634.375 768.391C634.375 766.714 634.698 765.219 635.344 763.906C635.99 762.594 636.917 761.578 638.125 760.859C639.344 760.141 640.755 759.781 642.359 759.781C644.641 759.781 646.5 760.479 647.938 761.875C649.385 763.271 650.193 765.167 650.359 767.562L650.391 768.719C650.391 771.312 649.667 773.396 648.219 774.969C646.771 776.531 644.828 777.312 642.391 777.312C639.953 777.312 638.005 776.531 636.547 774.969C635.099 773.406 634.375 771.281 634.375 768.594V768.391ZM638.891 768.719C638.891 770.323 639.193 771.552 639.797 772.406C640.401 773.25 641.266 773.672 642.391 773.672C643.484 773.672 644.339 773.255 644.953 772.422C645.568 771.578 645.875 770.234 645.875 768.391C645.875 766.818 645.568 765.599 644.953 764.734C644.339 763.87 643.474 763.438 642.359 763.438C641.255 763.438 640.401 763.87 639.797 764.734C639.193 765.589 638.891 766.917 638.891 768.719ZM657.953 760.094V777.922C657.953 779.786 657.458 781.234 656.469 782.266C655.479 783.307 654.052 783.828 652.188 783.828C651.406 783.828 650.661 783.74 649.953 783.562V779.984C650.495 780.078 650.969 780.125 651.375 780.125C652.74 780.125 653.422 779.401 653.422 777.953V760.094H657.953ZM653.062 755.719C653.062 755.042 653.286 754.484 653.734 754.047C654.193 753.609 654.812 753.391 655.594 753.391C656.375 753.391 656.99 753.609 657.438 754.047C657.896 754.484 658.125 755.042 658.125 755.719C658.125 756.406 657.891 756.969 657.422 757.406C656.964 757.844 656.354 758.062 655.594 758.062C654.833 758.062 654.219 757.844 653.75 757.406C653.292 756.969 653.062 756.406 653.062 755.719ZM669.266 777.312C666.786 777.312 664.766 776.552 663.203 775.031C661.651 773.51 660.875 771.484 660.875 768.953V768.516C660.875 766.818 661.203 765.302 661.859 763.969C662.516 762.625 663.443 761.594 664.641 760.875C665.849 760.146 667.224 759.781 668.766 759.781C671.078 759.781 672.896 760.51 674.219 761.969C675.552 763.427 676.219 765.495 676.219 768.172V770.016H665.453C665.599 771.12 666.036 772.005 666.766 772.672C667.505 773.339 668.438 773.672 669.562 773.672C671.302 773.672 672.661 773.042 673.641 771.781L675.859 774.266C675.182 775.224 674.266 775.974 673.109 776.516C671.953 777.047 670.672 777.312 669.266 777.312ZM668.75 763.438C667.854 763.438 667.125 763.74 666.562 764.344C666.01 764.948 665.656 765.812 665.5 766.938H671.781V766.578C671.76 765.578 671.49 764.807 670.969 764.266C670.448 763.714 669.708 763.438 668.75 763.438ZM685.828 773.672C686.661 773.672 687.339 773.443 687.859 772.984C688.38 772.526 688.651 771.917 688.672 771.156H692.906C692.896 772.302 692.583 773.354 691.969 774.312C691.354 775.26 690.51 776 689.438 776.531C688.375 777.052 687.198 777.312 685.906 777.312C683.49 777.312 681.583 776.547 680.188 775.016C678.792 773.474 678.094 771.349 678.094 768.641V768.344C678.094 765.74 678.786 763.661 680.172 762.109C681.557 760.557 683.458 759.781 685.875 759.781C687.99 759.781 689.682 760.385 690.953 761.594C692.234 762.792 692.885 764.391 692.906 766.391H688.672C688.651 765.516 688.38 764.807 687.859 764.266C687.339 763.714 686.651 763.438 685.797 763.438C684.745 763.438 683.948 763.823 683.406 764.594C682.875 765.354 682.609 766.594 682.609 768.312V768.781C682.609 770.521 682.875 771.771 683.406 772.531C683.938 773.292 684.745 773.672 685.828 773.672ZM700.891 755.938V760.094H703.781V763.406H700.891V771.844C700.891 772.469 701.01 772.917 701.25 773.188C701.49 773.458 701.948 773.594 702.625 773.594C703.125 773.594 703.568 773.557 703.953 773.484V776.906C703.068 777.177 702.156 777.312 701.219 777.312C698.052 777.312 696.438 775.714 696.375 772.516V763.406H693.906V760.094H696.375V755.938H700.891Z" fill="white"/>
</g>
<g filter="url(#filter2_d)">
<path d="M746.25 211.797V207.109H762C763.448 207.109 764.729 207.432 765.844 208.078C766.948 208.714 767.802 209.615 768.406 210.781C769.01 211.948 769.312 213.266 769.312 214.734C769.312 217.141 768.703 219.016 767.484 220.359C766.255 221.703 764.521 222.375 762.281 222.375V217.656C763.396 217.656 764.219 217.422 764.75 216.953C765.281 216.484 765.547 215.745 765.547 214.734C765.547 213.839 765.24 213.125 764.625 212.594C764.01 212.062 763.135 211.797 762 211.797H746.25ZM760.391 204.094C758.714 204.094 757.219 203.771 755.906 203.125C754.594 202.479 753.578 201.552 752.859 200.344C752.141 199.125 751.781 197.714 751.781 196.109C751.781 193.828 752.479 191.969 753.875 190.531C755.271 189.083 757.167 188.276 759.562 188.109L760.719 188.078C763.312 188.078 765.396 188.802 766.969 190.25C768.531 191.698 769.312 193.641 769.312 196.078C769.312 198.516 768.531 200.464 766.969 201.922C765.406 203.37 763.281 204.094 760.594 204.094H760.391ZM760.719 199.578C762.323 199.578 763.552 199.276 764.406 198.672C765.25 198.068 765.672 197.203 765.672 196.078C765.672 194.984 765.255 194.13 764.422 193.516C763.578 192.901 762.234 192.594 760.391 192.594C758.818 192.594 757.599 192.901 756.734 193.516C755.87 194.13 755.438 194.995 755.438 196.109C755.438 197.214 755.87 198.068 756.734 198.672C757.589 199.276 758.917 199.578 760.719 199.578ZM762.609 179.234L752.094 176.109V171.266L771.625 178.062L772.516 178.438C774.724 179.448 775.828 181.115 775.828 183.438C775.828 184.094 775.729 184.76 775.531 185.438H772.109L772.125 184.75C772.125 183.896 771.995 183.26 771.734 182.844C771.474 182.417 771.042 182.083 770.438 181.844L769.047 181.312L752.094 187.234V182.375L762.609 179.234Z" fill="white"/>
</g>
<g filter="url(#filter3_d)">
<path d="M761.422 680.109C763.87 680.286 765.797 681.193 767.203 682.828C768.609 684.453 769.312 686.599 769.312 689.266C769.312 692.182 768.333 694.479 766.375 696.156C764.406 697.823 761.708 698.656 758.281 698.656H756.891C754.703 698.656 752.776 698.271 751.109 697.5C749.443 696.729 748.167 695.63 747.281 694.203C746.385 692.766 745.938 691.099 745.938 689.203C745.938 686.578 746.641 684.464 748.047 682.859C749.453 681.255 751.427 680.328 753.969 680.078V684.766C752.5 684.88 751.438 685.292 750.781 686C750.115 686.698 749.781 687.766 749.781 689.203C749.781 690.766 750.344 691.938 751.469 692.719C752.583 693.49 754.318 693.885 756.672 693.906H758.391C760.849 693.906 762.646 693.536 763.781 692.797C764.917 692.047 765.484 690.87 765.484 689.266C765.484 687.818 765.156 686.74 764.5 686.031C763.833 685.312 762.807 684.901 761.422 684.797V680.109ZM760.391 678.031C758.714 678.031 757.219 677.708 755.906 677.062C754.594 676.417 753.578 675.49 752.859 674.281C752.141 673.062 751.781 671.651 751.781 670.047C751.781 667.766 752.479 665.906 753.875 664.469C755.271 663.021 757.167 662.214 759.562 662.047L760.719 662.016C763.312 662.016 765.396 662.74 766.969 664.188C768.531 665.635 769.312 667.578 769.312 670.016C769.312 672.453 768.531 674.401 766.969 675.859C765.406 677.307 763.281 678.031 760.594 678.031H760.391ZM760.719 673.516C762.323 673.516 763.552 673.214 764.406 672.609C765.25 672.005 765.672 671.141 765.672 670.016C765.672 668.922 765.255 668.068 764.422 667.453C763.578 666.839 762.234 666.531 760.391 666.531C758.818 666.531 757.599 666.839 756.734 667.453C755.87 668.068 755.438 668.932 755.438 670.047C755.438 671.151 755.87 672.005 756.734 672.609C757.589 673.214 758.917 673.516 760.719 673.516ZM752.094 655L753.984 654.859C752.516 653.661 751.781 652.042 751.781 650C751.781 647.823 752.641 646.328 754.359 645.516C752.641 644.328 751.781 642.635 751.781 640.438C751.781 638.604 752.318 637.24 753.391 636.344C754.453 635.448 756.057 635 758.203 635H769V639.531H758.219C757.26 639.531 756.562 639.719 756.125 640.094C755.677 640.469 755.453 641.13 755.453 642.078C755.453 643.432 756.099 644.37 757.391 644.891L769 644.875V649.391H758.234C757.255 649.391 756.547 649.583 756.109 649.969C755.672 650.354 755.453 651.01 755.453 651.938C755.453 653.219 755.984 654.146 757.047 654.719H769V659.234H752.094V655ZM760.703 616.297C763.307 616.297 765.396 616.891 766.969 618.078C768.531 619.255 769.312 620.849 769.312 622.859C769.312 624.568 768.719 625.948 767.531 627H775.5V631.516H752.094V627.328L753.75 627.172C752.438 626.078 751.781 624.651 751.781 622.891C751.781 620.807 752.552 619.188 754.094 618.031C755.635 616.875 757.76 616.297 760.469 616.297H760.703ZM760.375 620.812C758.802 620.812 757.589 621.094 756.734 621.656C755.88 622.208 755.453 623.016 755.453 624.078C755.453 625.495 755.995 626.469 757.078 627H764C765.115 626.448 765.672 625.464 765.672 624.047C765.672 621.891 763.906 620.812 760.375 620.812ZM769 608.719V613.25H745V608.719H769ZM769.312 597.203C769.312 599.682 768.552 601.703 767.031 603.266C765.51 604.818 763.484 605.594 760.953 605.594H760.516C758.818 605.594 757.302 605.266 755.969 604.609C754.625 603.953 753.594 603.026 752.875 601.828C752.146 600.62 751.781 599.245 751.781 597.703C751.781 595.391 752.51 593.573 753.969 592.25C755.427 590.917 757.495 590.25 760.172 590.25H762.016V601.016C763.12 600.87 764.005 600.432 764.672 599.703C765.339 598.964 765.672 598.031 765.672 596.906C765.672 595.167 765.042 593.807 763.781 592.828L766.266 590.609C767.224 591.286 767.974 592.203 768.516 593.359C769.047 594.516 769.312 595.797 769.312 597.203ZM755.438 597.719C755.438 598.615 755.74 599.344 756.344 599.906C756.948 600.458 757.812 600.812 758.938 600.969V594.688H758.578C757.578 594.708 756.807 594.979 756.266 595.5C755.714 596.021 755.438 596.76 755.438 597.719ZM757.141 581.234L752.094 578.391V573.562L760.375 578.375L769 573.359V578.203L763.688 581.219L769 584.219V589.078L760.375 584.062L752.094 588.859V584.016L757.141 581.234ZM769 566.625V571.156H752.094V566.625H769ZM747.719 571.422C747.042 571.422 746.484 571.198 746.047 570.75C745.609 570.292 745.391 569.672 745.391 568.891C745.391 568.12 745.609 567.505 746.047 567.047C746.484 566.589 747.042 566.359 747.719 566.359C748.406 566.359 748.969 566.594 749.406 567.062C749.844 567.521 750.062 568.13 750.062 568.891C750.062 569.651 749.844 570.266 749.406 570.734C748.969 571.193 748.406 571.422 747.719 571.422ZM747.938 557.484H752.094V554.594H755.406V557.484H763.844C764.469 557.484 764.917 557.365 765.188 557.125C765.458 556.885 765.594 556.427 765.594 555.75C765.594 555.25 765.557 554.807 765.484 554.422H768.906C769.177 555.307 769.312 556.219 769.312 557.156C769.312 560.323 767.714 561.938 764.516 562H755.406V564.469H752.094V562H747.938V557.484ZM762.609 545.766L752.094 542.641V537.797L771.625 544.594L772.516 544.969C774.724 545.979 775.828 547.646 775.828 549.969C775.828 550.625 775.729 551.292 775.531 551.969H772.109L772.125 551.281C772.125 550.427 771.995 549.792 771.734 549.375C771.474 548.948 771.042 548.615 770.438 548.375L769.047 547.844L752.094 553.766V548.906L762.609 545.766Z" fill="white"/>
</g>
<line x1="147.879" y1="647.879" x2="661.879" y2="133.879" stroke="#ECC94B" stroke-width="6"/>
<g filter="url(#filter4_d)">
<path d="M144.147 623.878C143.795 623.526 143.401 623.381 142.966 623.443C142.527 623.501 141.881 623.75 141.027 624.189C140.169 624.624 139.451 624.928 138.87 625.102C137.288 625.575 136.026 625.341 135.086 624.4C134.597 623.911 134.298 623.34 134.191 622.685C134.083 622.022 134.178 621.326 134.477 620.597C134.779 619.863 135.251 619.176 135.894 618.533C136.54 617.887 137.234 617.429 137.976 617.16C138.713 616.887 139.434 616.824 140.138 616.974C140.847 617.119 141.472 617.462 142.015 618.005L140.151 619.87C139.736 619.455 139.285 619.265 138.796 619.298C138.303 619.327 137.82 619.578 137.348 620.05C136.892 620.506 136.635 620.957 136.577 621.405C136.515 621.848 136.641 622.227 136.956 622.542C137.25 622.836 137.644 622.936 138.137 622.84C138.634 622.741 139.258 622.49 140.008 622.088C141.387 621.347 142.556 620.97 143.513 620.957C144.47 620.945 145.301 621.291 146.005 621.995C146.788 622.778 147.107 623.69 146.962 624.73C146.813 625.765 146.237 626.785 145.234 627.787C144.538 628.483 143.778 628.991 142.954 629.31C142.125 629.625 141.338 629.712 140.592 629.571C139.85 629.426 139.187 629.061 138.603 628.477L140.474 626.606C141.472 627.605 142.568 627.508 143.762 626.314C144.205 625.871 144.462 625.436 144.532 625.009C144.598 624.578 144.47 624.201 144.147 623.878ZM144.501 614.823L145.309 615.519C145.201 614.459 145.553 613.522 146.366 612.71C147.231 611.844 148.168 611.591 149.175 611.952C148.963 610.796 149.295 609.781 150.169 608.907C150.898 608.177 151.654 607.848 152.437 607.919C153.216 607.985 154.033 608.445 154.886 609.298L159.18 613.593L157.378 615.395L153.09 611.107C152.709 610.726 152.357 610.523 152.033 610.498C151.706 610.469 151.354 610.643 150.977 611.02C150.438 611.558 150.322 612.188 150.629 612.909L155.253 617.52L153.457 619.316L149.175 615.034C148.785 614.645 148.427 614.44 148.099 614.419C147.772 614.399 147.424 614.573 147.055 614.941C146.546 615.451 146.388 616.031 146.583 616.681L151.337 621.436L149.541 623.232L142.817 616.507L144.501 614.823ZM164.463 608.31C164.219 608.231 163.958 608.09 163.68 607.887C163.73 608.807 163.407 609.615 162.71 610.311C162.052 610.97 161.314 611.326 160.498 611.38C159.686 611.43 158.99 611.165 158.41 610.585C157.697 609.872 157.413 609.062 157.558 608.155C157.708 607.243 158.279 606.286 159.274 605.283L160.1 604.457L159.715 604.072C159.404 603.761 159.075 603.593 158.727 603.568C158.383 603.539 158.039 603.697 157.695 604.041C157.393 604.343 157.227 604.654 157.198 604.973C157.173 605.288 157.287 605.571 157.54 605.824L155.744 607.62C155.354 607.231 155.114 606.75 155.023 606.178C154.932 605.607 155.012 605.008 155.265 604.382C155.514 603.753 155.911 603.164 156.458 602.617C157.287 601.789 158.153 601.341 159.056 601.275C159.959 601.2 160.788 601.54 161.542 602.294L164.457 605.209C165.099 605.843 165.671 606.236 166.172 606.39L166.278 606.495L164.463 608.31ZM161.729 608.546C161.994 608.281 162.18 607.979 162.288 607.639C162.391 607.295 162.398 606.97 162.307 606.663L161.151 605.507L160.479 606.178C159.58 607.077 159.412 607.867 159.976 608.546L160.075 608.658C160.299 608.882 160.562 608.987 160.865 608.975C161.167 608.963 161.455 608.82 161.729 608.546ZM169.286 603.487L167.483 605.29L157.938 595.744L159.74 593.941L169.286 603.487ZM172.667 600.107L170.864 601.909L161.318 592.363L163.121 590.561L172.667 600.107ZM179.217 593.556L177.415 595.358L167.869 585.812L169.671 584.01L179.217 593.556ZM182.598 590.175L180.796 591.978L174.071 585.253L175.873 583.451L182.598 590.175ZM172.225 583.619C171.956 583.349 171.823 583.039 171.828 582.686C171.836 582.33 171.995 581.997 172.306 581.686C172.613 581.379 172.944 581.222 173.301 581.214C173.657 581.205 173.97 581.336 174.239 581.605C174.512 581.879 174.643 582.195 174.63 582.556C174.622 582.912 174.467 583.242 174.164 583.544C173.862 583.847 173.53 584.004 173.17 584.016C172.814 584.025 172.499 583.892 172.225 583.619ZM186.843 579.33C187.92 580.408 188.531 581.479 188.676 582.543C188.817 583.604 188.475 584.547 187.651 585.371C186.921 586.1 186.06 586.403 185.065 586.279L185.699 587.074L184.083 588.69L174.537 579.144L176.333 577.348L179.758 580.772C179.687 579.873 179.99 579.086 180.665 578.411C181.485 577.59 182.43 577.251 183.499 577.391C184.568 577.524 185.649 578.137 186.743 579.231L186.843 579.33ZM184.916 580.996C184.237 580.317 183.634 579.929 183.107 579.834C182.577 579.734 182.099 579.898 181.672 580.325C181.1 580.897 180.941 581.524 181.193 582.208L183.847 584.862C184.539 585.114 185.173 584.953 185.749 584.377C186.329 583.797 186.424 583.13 186.035 582.376C185.848 582.015 185.475 581.555 184.916 580.996ZM189.993 572.699C189.716 572.911 189.484 573.109 189.297 573.296C188.618 573.975 188.402 574.651 188.651 575.322L193.051 579.722L191.255 581.518L184.531 574.794L186.227 573.097L187.079 573.849C186.822 572.871 187.012 572.063 187.651 571.425C187.849 571.226 188.063 571.067 188.291 570.947L189.993 572.699ZM199.614 573.159C199.37 573.08 199.109 572.94 198.831 572.737C198.881 573.656 198.557 574.464 197.861 575.16C197.203 575.819 196.465 576.175 195.649 576.229C194.837 576.279 194.141 576.014 193.561 575.434C192.848 574.721 192.564 573.911 192.709 573.004C192.859 572.092 193.43 571.135 194.425 570.133L195.251 569.306L194.866 568.921C194.555 568.61 194.226 568.442 193.878 568.417C193.534 568.388 193.19 568.546 192.846 568.89C192.544 569.192 192.378 569.503 192.349 569.822C192.324 570.137 192.438 570.42 192.691 570.673L190.895 572.469C190.505 572.08 190.265 571.599 190.174 571.027C190.083 570.456 190.163 569.857 190.416 569.231C190.665 568.602 191.062 568.013 191.609 567.466C192.438 566.638 193.304 566.19 194.207 566.124C195.11 566.049 195.939 566.389 196.693 567.143L199.608 570.058C200.25 570.692 200.822 571.085 201.323 571.239L201.429 571.344L199.614 573.159ZM196.879 573.395C197.145 573.13 197.331 572.828 197.439 572.488C197.542 572.144 197.549 571.819 197.457 571.512L196.302 570.356L195.63 571.027C194.731 571.927 194.563 572.716 195.127 573.395L195.226 573.507C195.45 573.731 195.713 573.837 196.016 573.824C196.318 573.812 196.606 573.669 196.879 573.395ZM201.28 561.413C201.002 561.624 200.77 561.823 200.584 562.01C199.904 562.689 199.689 563.365 199.937 564.036L204.337 568.436L202.541 570.232L195.817 563.508L197.513 561.811L198.365 562.563C198.108 561.585 198.299 560.777 198.937 560.139C199.135 559.94 199.349 559.781 199.577 559.661L201.28 561.413ZM209.085 563.688L207.283 565.49L200.559 558.766L202.361 556.963L209.085 563.688ZM198.713 557.131C198.444 556.862 198.311 556.551 198.315 556.199C198.323 555.843 198.483 555.509 198.794 555.198C199.1 554.892 199.432 554.734 199.788 554.726C200.144 554.718 200.457 554.848 200.726 555.118C201 555.391 201.13 555.708 201.118 556.068C201.11 556.425 200.954 556.754 200.652 557.057C200.349 557.359 200.018 557.516 199.658 557.529C199.301 557.537 198.986 557.405 198.713 557.131ZM213.79 559.232C212.804 560.218 211.698 560.719 210.471 560.736C209.249 560.748 208.135 560.251 207.128 559.244L206.954 559.07C206.278 558.395 205.806 557.661 205.537 556.87C205.263 556.075 205.222 555.296 205.412 554.533C205.603 553.763 206.005 553.071 206.618 552.458C207.538 551.538 208.551 551.105 209.657 551.159C210.768 551.208 211.855 551.766 212.92 552.831L213.653 553.564L209.371 557.846C209.868 558.227 210.395 558.405 210.95 558.38C211.509 558.351 212.013 558.113 212.46 557.666C213.152 556.974 213.442 556.182 213.33 555.292L215.201 555.397C215.313 556.048 215.246 556.711 215.002 557.386C214.753 558.057 214.349 558.672 213.79 559.232ZM208.066 553.918C207.71 554.274 207.54 554.685 207.557 555.149C207.577 555.609 207.78 556.093 208.166 556.603L210.664 554.105L210.521 553.962C210.115 553.572 209.701 553.373 209.278 553.365C208.851 553.353 208.447 553.537 208.066 553.918ZM219.24 549.816C219.021 549.597 218.739 549.535 218.395 549.63C218.051 549.717 217.589 549.951 217.009 550.332C215.074 551.596 213.595 551.716 212.572 550.693C211.975 550.096 211.725 549.352 211.82 548.461C211.915 547.562 212.363 546.713 213.162 545.913C214.016 545.06 214.898 544.579 215.81 544.472C216.725 544.36 217.504 544.625 218.147 545.267L216.35 547.063C216.094 546.806 215.799 546.678 215.468 546.678C215.132 546.674 214.788 546.848 214.436 547.2C214.134 547.502 213.968 547.805 213.939 548.107C213.91 548.41 214.001 548.667 214.213 548.878C214.411 549.077 214.666 549.145 214.977 549.083C215.288 549.013 215.712 548.799 216.251 548.443C216.786 548.082 217.262 547.805 217.68 547.61C218.977 547.009 220.054 547.138 220.912 547.995C221.525 548.609 221.759 549.369 221.614 550.276C221.465 551.179 220.974 552.047 220.142 552.88C219.578 553.444 218.977 553.846 218.339 554.086C217.701 554.318 217.084 554.384 216.487 554.285C215.886 554.181 215.383 553.926 214.977 553.52L216.68 551.817C217.015 552.12 217.378 552.246 217.767 552.197C218.157 552.147 218.536 551.938 218.905 551.569C219.249 551.225 219.443 550.902 219.489 550.599C219.535 550.289 219.452 550.028 219.24 549.816Z" fill="white"/>
</g>
<defs>
<filter id="filter0_d" x="70.0312" y="753" width="187.734" height="38.8281" filterUnits="userSpaceOnUse" color-interpolation-filters="sRGB">
<feFlood flood-opacity="0" result="BackgroundImageFix"/>
<feColorMatrix in="SourceAlpha" type="matrix" values="0 0 0 0 0 0 0 0 0 0 0 0 0 0 0 0 0 0 127 0"/>
<feOffset dy="4"/>
<feGaussianBlur stdDeviation="2"/>
<feColorMatrix type="matrix" values="0 0 0 0 0 0 0 0 0 0.0256667 0 0 0 0 0.116667 0 0 0 0.25 0"/>
<feBlend mode="normal" in2="BackgroundImageFix" result="effect1_dropShadow"/>
<feBlend mode="normal" in="SourceGraphic" in2="effect1_dropShadow" result="shape"/>
</filter>
<filter id="filter1_d" x="489.031" y="753.391" width="218.922" height="38.4375" filterUnits="userSpaceOnUse" color-interpolation-filters="sRGB">
<feFlood flood-opacity="0" result="BackgroundImageFix"/>
<feColorMatrix in="SourceAlpha" type="matrix" values="0 0 0 0 0 0 0 0 0 0 0 0 0 0 0 0 0 0 127 0"/>
<feOffset dy="4"/>
<feGaussianBlur stdDeviation="2"/>
<feColorMatrix type="matrix" values="0 0 0 0 0 0 0 0 0 0.0256667 0 0 0 0 0.116667 0 0 0 0.25 0"/>
<feBlend mode="normal" in2="BackgroundImageFix" result="effect1_dropShadow"/>
<feBlend mode="normal" in="SourceGraphic" in2="effect1_dropShadow" result="shape"/>
</filter>
<filter id="filter2_d" x="742.25" y="171.266" width="37.5781" height="59.1094" filterUnits="userSpaceOnUse" color-interpolation-filters="sRGB">
<feFlood flood-opacity="0" result="BackgroundImageFix"/>
<feColorMatrix in="SourceAlpha" type="matrix" values="0 0 0 0 0 0 0 0 0 0 0 0 0 0 0 0 0 0 127 0"/>
<feOffset dy="4"/>
<feGaussianBlur stdDeviation="2"/>
<feColorMatrix type="matrix" values="0 0 0 0 0 0 0 0 0 0.0256667 0 0 0 0 0.116667 0 0 0 0.25 0"/>
<feBlend mode="normal" in2="BackgroundImageFix" result="effect1_dropShadow"/>
<feBlend mode="normal" in="SourceGraphic" in2="effect1_dropShadow" result="shape"/>
</filter>
<filter id="filter3_d" x="741" y="537.797" width="38.8281" height="168.859" filterUnits="userSpaceOnUse" color-interpolation-filters="sRGB">
<feFlood flood-opacity="0" result="BackgroundImageFix"/>
<feColorMatrix in="SourceAlpha" type="matrix" values="0 0 0 0 0 0 0 0 0 0 0 0 0 0 0 0 0 0 127 0"/>
<feOffset dy="4"/>
<feGaussianBlur stdDeviation="2"/>
<feColorMatrix type="matrix" values="0 0 0 0 0 0 0 0 0 0.0256667 0 0 0 0 0.116667 0 0 0 0.25 0"/>
<feBlend mode="normal" in2="BackgroundImageFix" result="effect1_dropShadow"/>
<feBlend mode="normal" in="SourceGraphic" in2="effect1_dropShadow" result="shape"/>
</filter>
<filter id="filter4_d" x="130.148" y="544.447" width="95.5081" height="93.1895" filterUnits="userSpaceOnUse" color-interpolation-filters="sRGB">
<feFlood flood-opacity="0" result="BackgroundImageFix"/>
<feColorMatrix in="SourceAlpha" type="matrix" values="0 0 0 0 0 0 0 0 0 0 0 0 0 0 0 0 0 0 127 0"/>
<feOffset dy="4"/>
<feGaussianBlur stdDeviation="2"/>
<feColorMatrix type="matrix" values="0 0 0 0 0 0 0 0 0 0.0256667 0 0 0 0 0.116667 0 0 0 0.25 0"/>
<feBlend mode="normal" in2="BackgroundImageFix" result="effect1_dropShadow"/>
<feBlend mode="normal" in="SourceGraphic" in2="effect1_dropShadow" result="shape"/>
</filter>
</defs>
</svg>
