<svg width="800" height="800" viewBox="0 0 800 800" fill="none" xmlns="http://www.w3.org/2000/svg">
<rect width="800" height="800" fill="#E5E5E5"/>
<rect width="800" height="800" fill="#4299E1"/>
<line y1="398.5" x2="800" y2="398.5" stroke="white" stroke-width="3"/>
<line x1="401.5" x2="401.5" y2="800" stroke="white" stroke-width="3"/>
<g filter="url(#filter0_d)">
<path d="M87.7188 767.141H78.7188V773.234H89.2812V777H74.0312V754.25H89.25V758.047H78.7188V763.469H87.7188V767.141ZM101.531 777C101.323 776.594 101.172 776.089 101.078 775.484C99.9844 776.703 98.5625 777.312 96.8125 777.312C95.1562 777.312 93.7812 776.833 92.6875 775.875C91.6042 774.917 91.0625 773.708 91.0625 772.25C91.0625 770.458 91.724 769.083 93.0469 768.125C94.3802 767.167 96.3021 766.682 98.8125 766.672H100.891V765.703C100.891 764.922 100.688 764.297 100.281 763.828C99.8854 763.359 99.2552 763.125 98.3906 763.125C97.6302 763.125 97.0312 763.307 96.5938 763.672C96.1667 764.036 95.9531 764.536 95.9531 765.172H91.4375C91.4375 764.193 91.7396 763.286 92.3438 762.453C92.9479 761.62 93.8021 760.969 94.9062 760.5C96.0104 760.021 97.25 759.781 98.625 759.781C100.708 759.781 102.359 760.307 103.578 761.359C104.807 762.401 105.422 763.87 105.422 765.766V773.094C105.432 774.698 105.656 775.911 106.094 776.734V777H101.531ZM97.7969 773.859C98.4635 773.859 99.0781 773.714 99.6406 773.422C100.203 773.12 100.62 772.719 100.891 772.219V769.312H99.2031C96.9427 769.312 95.7396 770.094 95.5938 771.656L95.5781 771.922C95.5781 772.484 95.776 772.948 96.1719 773.312C96.5677 773.677 97.1094 773.859 97.7969 773.859ZM118.391 764.328C117.776 764.245 117.234 764.203 116.766 764.203C115.057 764.203 113.938 764.781 113.406 765.938V777H108.891V760.094H113.156L113.281 762.109C114.188 760.557 115.443 759.781 117.047 759.781C117.547 759.781 118.016 759.849 118.453 759.984L118.391 764.328ZM125.344 777H120.812V753H125.344V777ZM135.391 770.609L138.516 760.094H143.359L136.562 779.625L136.188 780.516C135.177 782.724 133.51 783.828 131.188 783.828C130.531 783.828 129.865 783.729 129.188 783.531V780.109L129.875 780.125C130.729 780.125 131.365 779.995 131.781 779.734C132.208 779.474 132.542 779.042 132.781 778.438L133.312 777.047L127.391 760.094H132.25L135.391 770.609ZM158.094 768.984V777H153.406V754.25H162.281C163.99 754.25 165.49 754.562 166.781 755.188C168.083 755.812 169.083 756.703 169.781 757.859C170.479 759.005 170.828 760.312 170.828 761.781C170.828 764.01 170.062 765.771 168.531 767.062C167.01 768.344 164.901 768.984 162.203 768.984H158.094ZM158.094 765.188H162.281C163.521 765.188 164.464 764.896 165.109 764.312C165.766 763.729 166.094 762.896 166.094 761.812C166.094 760.698 165.766 759.797 165.109 759.109C164.453 758.422 163.547 758.068 162.391 758.047H158.094V765.188ZM183.266 764.328C182.651 764.245 182.109 764.203 181.641 764.203C179.932 764.203 178.812 764.781 178.281 765.938V777H173.766V760.094H178.031L178.156 762.109C179.062 760.557 180.318 759.781 181.922 759.781C182.422 759.781 182.891 759.849 183.328 759.984L183.266 764.328ZM184.188 768.391C184.188 766.714 184.51 765.219 185.156 763.906C185.802 762.594 186.729 761.578 187.938 760.859C189.156 760.141 190.568 759.781 192.172 759.781C194.453 759.781 196.312 760.479 197.75 761.875C199.198 763.271 200.005 765.167 200.172 767.562L200.203 768.719C200.203 771.312 199.479 773.396 198.031 774.969C196.583 776.531 194.641 777.312 192.203 777.312C189.766 777.312 187.818 776.531 186.359 774.969C184.911 773.406 184.188 771.281 184.188 768.594V768.391ZM188.703 768.719C188.703 770.323 189.005 771.552 189.609 772.406C190.214 773.25 191.078 773.672 192.203 773.672C193.297 773.672 194.151 773.255 194.766 772.422C195.38 771.578 195.688 770.234 195.688 768.391C195.688 766.818 195.38 765.599 194.766 764.734C194.151 763.87 193.286 763.438 192.172 763.438C191.068 763.438 190.214 763.87 189.609 764.734C189.005 765.589 188.703 766.917 188.703 768.719ZM207.766 760.094V777.922C207.766 779.786 207.271 781.234 206.281 782.266C205.292 783.307 203.865 783.828 202 783.828C201.219 783.828 200.474 783.74 199.766 783.562V779.984C200.307 780.078 200.781 780.125 201.188 780.125C202.552 780.125 203.234 779.401 203.234 777.953V760.094H207.766ZM202.875 755.719C202.875 755.042 203.099 754.484 203.547 754.047C204.005 753.609 204.625 753.391 205.406 753.391C206.188 753.391 206.802 753.609 207.25 754.047C207.708 754.484 207.938 755.042 207.938 755.719C207.938 756.406 207.703 756.969 207.234 757.406C206.776 757.844 206.167 758.062 205.406 758.062C204.646 758.062 204.031 757.844 203.562 757.406C203.104 756.969 202.875 756.406 202.875 755.719ZM219.078 777.312C216.599 777.312 214.578 776.552 213.016 775.031C211.464 773.51 210.688 771.484 210.688 768.953V768.516C210.688 766.818 211.016 765.302 211.672 763.969C212.328 762.625 213.255 761.594 214.453 760.875C215.661 760.146 217.036 759.781 218.578 759.781C220.891 759.781 222.708 760.51 224.031 761.969C225.365 763.427 226.031 765.495 226.031 768.172V770.016H215.266C215.411 771.12 215.849 772.005 216.578 772.672C217.318 773.339 218.25 773.672 219.375 773.672C221.115 773.672 222.474 773.042 223.453 771.781L225.672 774.266C224.995 775.224 224.078 775.974 222.922 776.516C221.766 777.047 220.484 777.312 219.078 777.312ZM218.562 763.438C217.667 763.438 216.938 763.74 216.375 764.344C215.823 764.948 215.469 765.812 215.312 766.938H221.594V766.578C221.573 765.578 221.302 764.807 220.781 764.266C220.26 763.714 219.521 763.438 218.562 763.438ZM235.641 773.672C236.474 773.672 237.151 773.443 237.672 772.984C238.193 772.526 238.464 771.917 238.484 771.156H242.719C242.708 772.302 242.396 773.354 241.781 774.312C241.167 775.26 240.323 776 239.25 776.531C238.188 777.052 237.01 777.312 235.719 777.312C233.302 777.312 231.396 776.547 230 775.016C228.604 773.474 227.906 771.349 227.906 768.641V768.344C227.906 765.74 228.599 763.661 229.984 762.109C231.37 760.557 233.271 759.781 235.688 759.781C237.802 759.781 239.495 760.385 240.766 761.594C242.047 762.792 242.698 764.391 242.719 766.391H238.484C238.464 765.516 238.193 764.807 237.672 764.266C237.151 763.714 236.464 763.438 235.609 763.438C234.557 763.438 233.76 763.823 233.219 764.594C232.688 765.354 232.422 766.594 232.422 768.312V768.781C232.422 770.521 232.688 771.771 233.219 772.531C233.75 773.292 234.557 773.672 235.641 773.672ZM250.703 755.938V760.094H253.594V763.406H250.703V771.844C250.703 772.469 250.823 772.917 251.062 773.188C251.302 773.458 251.76 773.594 252.438 773.594C252.938 773.594 253.38 773.557 253.766 773.484V776.906C252.88 777.177 251.969 777.312 251.031 777.312C247.865 777.312 246.25 775.714 246.188 772.516V763.406H243.719V760.094H246.188V755.938H250.703Z" fill="white"/>
</g>
<g filter="url(#filter1_d)">
<path d="M499.156 754.25L505 770.75L510.812 754.25H516.969V777H512.266V770.781L512.734 760.047L506.594 777H503.375L497.25 760.062L497.719 770.781V777H493.031V754.25H499.156ZM530.562 777C530.354 776.594 530.203 776.089 530.109 775.484C529.016 776.703 527.594 777.312 525.844 777.312C524.188 777.312 522.812 776.833 521.719 775.875C520.635 774.917 520.094 773.708 520.094 772.25C520.094 770.458 520.755 769.083 522.078 768.125C523.411 767.167 525.333 766.682 527.844 766.672H529.922V765.703C529.922 764.922 529.719 764.297 529.312 763.828C528.917 763.359 528.286 763.125 527.422 763.125C526.661 763.125 526.062 763.307 525.625 763.672C525.198 764.036 524.984 764.536 524.984 765.172H520.469C520.469 764.193 520.771 763.286 521.375 762.453C521.979 761.62 522.833 760.969 523.938 760.5C525.042 760.021 526.281 759.781 527.656 759.781C529.74 759.781 531.391 760.307 532.609 761.359C533.839 762.401 534.453 763.87 534.453 765.766V773.094C534.464 774.698 534.688 775.911 535.125 776.734V777H530.562ZM526.828 773.859C527.495 773.859 528.109 773.714 528.672 773.422C529.234 773.12 529.651 772.719 529.922 772.219V769.312H528.234C525.974 769.312 524.771 770.094 524.625 771.656L524.609 771.922C524.609 772.484 524.807 772.948 525.203 773.312C525.599 773.677 526.141 773.859 526.828 773.859ZM543.328 755.938V760.094H546.219V763.406H543.328V771.844C543.328 772.469 543.448 772.917 543.688 773.188C543.927 773.458 544.385 773.594 545.062 773.594C545.562 773.594 546.005 773.557 546.391 773.484V776.906C545.505 777.177 544.594 777.312 543.656 777.312C540.49 777.312 538.875 775.714 538.812 772.516V763.406H536.344V760.094H538.812V755.938H543.328ZM558.859 775.281C557.745 776.635 556.203 777.312 554.234 777.312C552.422 777.312 551.036 776.792 550.078 775.75C549.13 774.708 548.646 773.182 548.625 771.172V760.094H553.141V771.016C553.141 772.776 553.943 773.656 555.547 773.656C557.078 773.656 558.13 773.125 558.703 772.062V760.094H563.234V777H558.984L558.859 775.281ZM576.141 764.328C575.526 764.245 574.984 764.203 574.516 764.203C572.807 764.203 571.688 764.781 571.156 765.938V777H566.641V760.094H570.906L571.031 762.109C571.938 760.557 573.193 759.781 574.797 759.781C575.297 759.781 575.766 759.849 576.203 759.984L576.141 764.328ZM585.797 777.312C583.318 777.312 581.297 776.552 579.734 775.031C578.182 773.51 577.406 771.484 577.406 768.953V768.516C577.406 766.818 577.734 765.302 578.391 763.969C579.047 762.625 579.974 761.594 581.172 760.875C582.38 760.146 583.755 759.781 585.297 759.781C587.609 759.781 589.427 760.51 590.75 761.969C592.083 763.427 592.75 765.495 592.75 768.172V770.016H581.984C582.13 771.12 582.568 772.005 583.297 772.672C584.036 773.339 584.969 773.672 586.094 773.672C587.833 773.672 589.193 773.042 590.172 771.781L592.391 774.266C591.714 775.224 590.797 775.974 589.641 776.516C588.484 777.047 587.203 777.312 585.797 777.312ZM585.281 763.438C584.385 763.438 583.656 763.74 583.094 764.344C582.542 764.948 582.188 765.812 582.031 766.938H588.312V766.578C588.292 765.578 588.021 764.807 587.5 764.266C586.979 763.714 586.24 763.438 585.281 763.438ZM608.281 768.984V777H603.594V754.25H612.469C614.177 754.25 615.677 754.562 616.969 755.188C618.271 755.812 619.271 756.703 619.969 757.859C620.667 759.005 621.016 760.312 621.016 761.781C621.016 764.01 620.25 765.771 618.719 767.062C617.198 768.344 615.089 768.984 612.391 768.984H608.281ZM608.281 765.188H612.469C613.708 765.188 614.651 764.896 615.297 764.312C615.953 763.729 616.281 762.896 616.281 761.812C616.281 760.698 615.953 759.797 615.297 759.109C614.641 758.422 613.734 758.068 612.578 758.047H608.281V765.188ZM633.453 764.328C632.839 764.245 632.297 764.203 631.828 764.203C630.12 764.203 629 764.781 628.469 765.938V777H623.953V760.094H628.219L628.344 762.109C629.25 760.557 630.505 759.781 632.109 759.781C632.609 759.781 633.078 759.849 633.516 759.984L633.453 764.328ZM634.375 768.391C634.375 766.714 634.698 765.219 635.344 763.906C635.99 762.594 636.917 761.578 638.125 760.859C639.344 760.141 640.755 759.781 642.359 759.781C644.641 759.781 646.5 760.479 647.938 761.875C649.385 763.271 650.193 765.167 650.359 767.562L650.391 768.719C650.391 771.312 649.667 773.396 648.219 774.969C646.771 776.531 644.828 777.312 642.391 777.312C639.953 777.312 638.005 776.531 636.547 774.969C635.099 773.406 634.375 771.281 634.375 768.594V768.391ZM638.891 768.719C638.891 770.323 639.193 771.552 639.797 772.406C640.401 773.25 641.266 773.672 642.391 773.672C643.484 773.672 644.339 773.255 644.953 772.422C645.568 771.578 645.875 770.234 645.875 768.391C645.875 766.818 645.568 765.599 644.953 764.734C644.339 763.87 643.474 763.438 642.359 763.438C641.255 763.438 640.401 763.87 639.797 764.734C639.193 765.589 638.891 766.917 638.891 768.719ZM657.953 760.094V777.922C657.953 779.786 657.458 781.234 656.469 782.266C655.479 783.307 654.052 783.828 652.188 783.828C651.406 783.828 650.661 783.74 649.953 783.562V779.984C650.495 780.078 650.969 780.125 651.375 780.125C652.74 780.125 653.422 779.401 653.422 777.953V760.094H657.953ZM653.062 755.719C653.062 755.042 653.286 754.484 653.734 754.047C654.193 753.609 654.812 753.391 655.594 753.391C656.375 753.391 656.99 753.609 657.438 754.047C657.896 754.484 658.125 755.042 658.125 755.719C658.125 756.406 657.891 756.969 657.422 757.406C656.964 757.844 656.354 758.062 655.594 758.062C654.833 758.062 654.219 757.844 653.75 757.406C653.292 756.969 653.062 756.406 653.062 755.719ZM669.266 777.312C666.786 777.312 664.766 776.552 663.203 775.031C661.651 773.51 660.875 771.484 660.875 768.953V768.516C660.875 766.818 661.203 765.302 661.859 763.969C662.516 762.625 663.443 761.594 664.641 760.875C665.849 760.146 667.224 759.781 668.766 759.781C671.078 759.781 672.896 760.51 674.219 761.969C675.552 763.427 676.219 765.495 676.219 768.172V770.016H665.453C665.599 771.12 666.036 772.005 666.766 772.672C667.505 773.339 668.438 773.672 669.562 773.672C671.302 773.672 672.661 773.042 673.641 771.781L675.859 774.266C675.182 775.224 674.266 775.974 673.109 776.516C671.953 777.047 670.672 777.312 669.266 777.312ZM668.75 763.438C667.854 763.438 667.125 763.74 666.562 764.344C666.01 764.948 665.656 765.812 665.5 766.938H671.781V766.578C671.76 765.578 671.49 764.807 670.969 764.266C670.448 763.714 669.708 763.438 668.75 763.438ZM685.828 773.672C686.661 773.672 687.339 773.443 687.859 772.984C688.38 772.526 688.651 771.917 688.672 771.156H692.906C692.896 772.302 692.583 773.354 691.969 774.312C691.354 775.26 690.51 776 689.438 776.531C688.375 777.052 687.198 777.312 685.906 777.312C683.49 777.312 681.583 776.547 680.188 775.016C678.792 773.474 678.094 771.349 678.094 768.641V768.344C678.094 765.74 678.786 763.661 680.172 762.109C681.557 760.557 683.458 759.781 685.875 759.781C687.99 759.781 689.682 760.385 690.953 761.594C692.234 762.792 692.885 764.391 692.906 766.391H688.672C688.651 765.516 688.38 764.807 687.859 764.266C687.339 763.714 686.651 763.438 685.797 763.438C684.745 763.438 683.948 763.823 683.406 764.594C682.875 765.354 682.609 766.594 682.609 768.312V768.781C682.609 770.521 682.875 771.771 683.406 772.531C683.938 773.292 684.745 773.672 685.828 773.672ZM700.891 755.938V760.094H703.781V763.406H700.891V771.844C700.891 772.469 701.01 772.917 701.25 773.188C701.49 773.458 701.948 773.594 702.625 773.594C703.125 773.594 703.568 773.557 703.953 773.484V776.906C703.068 777.177 702.156 777.312 701.219 777.312C698.052 777.312 696.438 775.714 696.375 772.516V763.406H693.906V760.094H696.375V755.938H700.891Z" fill="white"/>
</g>
<g filter="url(#filter2_d)">
<path d="M746.25 211.797V207.109H762C763.448 207.109 764.729 207.432 765.844 208.078C766.948 208.714 767.802 209.615 768.406 210.781C769.01 211.948 769.312 213.266 769.312 214.734C769.312 217.141 768.703 219.016 767.484 220.359C766.255 221.703 764.521 222.375 762.281 222.375V217.656C763.396 217.656 764.219 217.422 764.75 216.953C765.281 216.484 765.547 215.745 765.547 214.734C765.547 213.839 765.24 213.125 764.625 212.594C764.01 212.062 763.135 211.797 762 211.797H746.25ZM760.391 204.094C758.714 204.094 757.219 203.771 755.906 203.125C754.594 202.479 753.578 201.552 752.859 200.344C752.141 199.125 751.781 197.714 751.781 196.109C751.781 193.828 752.479 191.969 753.875 190.531C755.271 189.083 757.167 188.276 759.562 188.109L760.719 188.078C763.312 188.078 765.396 188.802 766.969 190.25C768.531 191.698 769.312 193.641 769.312 196.078C769.312 198.516 768.531 200.464 766.969 201.922C765.406 203.37 763.281 204.094 760.594 204.094H760.391ZM760.719 199.578C762.323 199.578 763.552 199.276 764.406 198.672C765.25 198.068 765.672 197.203 765.672 196.078C765.672 194.984 765.255 194.13 764.422 193.516C763.578 192.901 762.234 192.594 760.391 192.594C758.818 192.594 757.599 192.901 756.734 193.516C755.87 194.13 755.438 194.995 755.438 196.109C755.438 197.214 755.87 198.068 756.734 198.672C757.589 199.276 758.917 199.578 760.719 199.578ZM762.609 179.234L752.094 176.109V171.266L771.625 178.062L772.516 178.438C774.724 179.448 775.828 181.115 775.828 183.438C775.828 184.094 775.729 184.76 775.531 185.438H772.109L772.125 184.75C772.125 183.896 771.995 183.26 771.734 182.844C771.474 182.417 771.042 182.083 770.438 181.844L769.047 181.312L752.094 187.234V182.375L762.609 179.234Z" fill="white"/>
</g>
<g filter="url(#filter3_d)">
<path d="M761.422 680.109C763.87 680.286 765.797 681.193 767.203 682.828C768.609 684.453 769.312 686.599 769.312 689.266C769.312 692.182 768.333 694.479 766.375 696.156C764.406 697.823 761.708 698.656 758.281 698.656H756.891C754.703 698.656 752.776 698.271 751.109 697.5C749.443 696.729 748.167 695.63 747.281 694.203C746.385 692.766 745.938 691.099 745.938 689.203C745.938 686.578 746.641 684.464 748.047 682.859C749.453 681.255 751.427 680.328 753.969 680.078V684.766C752.5 684.88 751.438 685.292 750.781 686C750.115 686.698 749.781 687.766 749.781 689.203C749.781 690.766 750.344 691.938 751.469 692.719C752.583 693.49 754.318 693.885 756.672 693.906H758.391C760.849 693.906 762.646 693.536 763.781 692.797C764.917 692.047 765.484 690.87 765.484 689.266C765.484 687.818 765.156 686.74 764.5 686.031C763.833 685.312 762.807 684.901 761.422 684.797V680.109ZM760.391 678.031C758.714 678.031 757.219 677.708 755.906 677.062C754.594 676.417 753.578 675.49 752.859 674.281C752.141 673.062 751.781 671.651 751.781 670.047C751.781 667.766 752.479 665.906 753.875 664.469C755.271 663.021 757.167 662.214 759.562 662.047L760.719 662.016C763.312 662.016 765.396 662.74 766.969 664.188C768.531 665.635 769.312 667.578 769.312 670.016C769.312 672.453 768.531 674.401 766.969 675.859C765.406 677.307 763.281 678.031 760.594 678.031H760.391ZM760.719 673.516C762.323 673.516 763.552 673.214 764.406 672.609C765.25 672.005 765.672 671.141 765.672 670.016C765.672 668.922 765.255 668.068 764.422 667.453C763.578 666.839 762.234 666.531 760.391 666.531C758.818 666.531 757.599 666.839 756.734 667.453C755.87 668.068 755.438 668.932 755.438 670.047C755.438 671.151 755.87 672.005 756.734 672.609C757.589 673.214 758.917 673.516 760.719 673.516ZM752.094 655L753.984 654.859C752.516 653.661 751.781 652.042 751.781 650C751.781 647.823 752.641 646.328 754.359 645.516C752.641 644.328 751.781 642.635 751.781 640.438C751.781 638.604 752.318 637.24 753.391 636.344C754.453 635.448 756.057 635 758.203 635H769V639.531H758.219C757.26 639.531 756.562 639.719 756.125 640.094C755.677 640.469 755.453 641.13 755.453 642.078C755.453 643.432 756.099 644.37 757.391 644.891L769 644.875V649.391H758.234C757.255 649.391 756.547 649.583 756.109 649.969C755.672 650.354 755.453 651.01 755.453 651.938C755.453 653.219 755.984 654.146 757.047 654.719H769V659.234H752.094V655ZM760.703 616.297C763.307 616.297 765.396 616.891 766.969 618.078C768.531 619.255 769.312 620.849 769.312 622.859C769.312 624.568 768.719 625.948 767.531 627H775.5V631.516H752.094V627.328L753.75 627.172C752.438 626.078 751.781 624.651 751.781 622.891C751.781 620.807 752.552 619.188 754.094 618.031C755.635 616.875 757.76 616.297 760.469 616.297H760.703ZM760.375 620.812C758.802 620.812 757.589 621.094 756.734 621.656C755.88 622.208 755.453 623.016 755.453 624.078C755.453 625.495 755.995 626.469 757.078 627H764C765.115 626.448 765.672 625.464 765.672 624.047C765.672 621.891 763.906 620.812 760.375 620.812ZM769 608.719V613.25H745V608.719H769ZM769.312 597.203C769.312 599.682 768.552 601.703 767.031 603.266C765.51 604.818 763.484 605.594 760.953 605.594H760.516C758.818 605.594 757.302 605.266 755.969 604.609C754.625 603.953 753.594 603.026 752.875 601.828C752.146 600.62 751.781 599.245 751.781 597.703C751.781 595.391 752.51 593.573 753.969 592.25C755.427 590.917 757.495 590.25 760.172 590.25H762.016V601.016C763.12 600.87 764.005 600.432 764.672 599.703C765.339 598.964 765.672 598.031 765.672 596.906C765.672 595.167 765.042 593.807 763.781 592.828L766.266 590.609C767.224 591.286 767.974 592.203 768.516 593.359C769.047 594.516 769.312 595.797 769.312 597.203ZM755.438 597.719C755.438 598.615 755.74 599.344 756.344 599.906C756.948 600.458 757.812 600.812 758.938 600.969V594.688H758.578C757.578 594.708 756.807 594.979 756.266 595.5C755.714 596.021 755.438 596.76 755.438 597.719ZM757.141 581.234L752.094 578.391V573.562L760.375 578.375L769 573.359V578.203L763.688 581.219L769 584.219V589.078L760.375 584.062L752.094 588.859V584.016L757.141 581.234ZM769 566.625V571.156H752.094V566.625H769ZM747.719 571.422C747.042 571.422 746.484 571.198 746.047 570.75C745.609 570.292 745.391 569.672 745.391 568.891C745.391 568.12 745.609 567.505 746.047 567.047C746.484 566.589 747.042 566.359 747.719 566.359C748.406 566.359 748.969 566.594 749.406 567.062C749.844 567.521 750.062 568.13 750.062 568.891C750.062 569.651 749.844 570.266 749.406 570.734C748.969 571.193 748.406 571.422 747.719 571.422ZM747.938 557.484H752.094V554.594H755.406V557.484H763.844C764.469 557.484 764.917 557.365 765.188 557.125C765.458 556.885 765.594 556.427 765.594 555.75C765.594 555.25 765.557 554.807 765.484 554.422H768.906C769.177 555.307 769.312 556.219 769.312 557.156C769.312 560.323 767.714 561.938 764.516 562H755.406V564.469H752.094V562H747.938V557.484ZM762.609 545.766L752.094 542.641V537.797L771.625 544.594L772.516 544.969C774.724 545.979 775.828 547.646 775.828 549.969C775.828 550.625 775.729 551.292 775.531 551.969H772.109L772.125 551.281C772.125 550.427 771.995 549.792 771.734 549.375C771.474 548.948 771.042 548.615 770.438 548.375L769.047 547.844L752.094 553.766V548.906L762.609 545.766Z" fill="white"/>
</g>
<defs>
<filter id="filter0_d" x="70.0312" y="753" width="187.734" height="38.8281" filterUnits="userSpaceOnUse" color-interpolation-filters="sRGB">
<feFlood flood-opacity="0" result="BackgroundImageFix"/>
<feColorMatrix in="SourceAlpha" type="matrix" values="0 0 0 0 0 0 0 0 0 0 0 0 0 0 0 0 0 0 127 0"/>
<feOffset dy="4"/>
<feGaussianBlur stdDeviation="2"/>
<feColorMatrix type="matrix" values="0 0 0 0 0 0 0 0 0 0.0256667 0 0 0 0 0.116667 0 0 0 0.25 0"/>
<feBlend mode="normal" in2="BackgroundImageFix" result="effect1_dropShadow"/>
<feBlend mode="normal" in="SourceGraphic" in2="effect1_dropShadow" result="shape"/>
</filter>
<filter id="filter1_d" x="489.031" y="753.391" width="218.922" height="38.4375" filterUnits="userSpaceOnUse" color-interpolation-filters="sRGB">
<feFlood flood-opacity="0" result="BackgroundImageFix"/>
<feColorMatrix in="SourceAlpha" type="matrix" values="0 0 0 0 0 0 0 0 0 0 0 0 0 0 0 0 0 0 127 0"/>
<feOffset dy="4"/>
<feGaussianBlur stdDeviation="2"/>
<feColorMatrix type="matrix" values="0 0 0 0 0 0 0 0 0 0.0256667 0 0 0 0 0.116667 0 0 0 0.25 0"/>
<feBlend mode="normal" in2="BackgroundImageFix" result="effect1_dropShadow"/>
<feBlend mode="normal" in="SourceGraphic" in2="effect1_dropShadow" result="shape"/>
</filter>
<filter id="filter2_d" x="742.25" y="171.266" width="37.5781" height="59.1094" filterUnits="userSpaceOnUse" color-interpolation-filters="sRGB">
<feFlood flood-opacity="0" result="BackgroundImageFix"/>
<feColorMatrix in="SourceAlpha" type="matrix" values="0 0 0 0 0 0 0 0 0 0 0 0 0 0 0 0 0 0 127 0"/>
<feOffset dy="4"/>
<feGaussianBlur stdDeviation="2"/>
<feColorMatrix type="matrix" values="0 0 0 0 0 0 0 0 0 0.0256667 0 0 0 0 0.116667 0 0 0 0.25 0"/>
<feBlend mode="normal" in2="BackgroundImageFix" result="effect1_dropShadow"/>
<feBlend mode="normal" in="SourceGraphic" in2="effect1_dropShadow" result="shape"/>
</filter>
<filter id="filter3_d" x="741" y="537.797" width="38.8281" height="168.859" filterUnits="userSpaceOnUse" color-interpolation-filters="sRGB">
<feFlood flood-opacity="0" result="BackgroundImageFix"/>
<feColorMatrix in="SourceAlpha" type="matrix" values="0 0 0 0 0 0 0 0 0 0 0 0 0 0 0 0 0 0 127 0"/>
<feOffset dy="4"/>
<feGaussianBlur stdDeviation="2"/>
<feColorMatrix type="matrix" values="0 0 0 0 0 0 0 0 0 0.0256667 0 0 0 0 0.116667 0 0 0 0.25 0"/>
<feBlend mode="normal" in2="BackgroundImageFix" result="effect1_dropShadow"/>
<feBlend mode="normal" in="SourceGraphic" in2="effect1_dropShadow" result="shape"/>
</filter>
</defs>
</svg>
